<svg xmlns="http://www.w3.org/2000/svg" viewBox="0 0 24 24" width="24" height="24" fill="white">
    <!-- Outer circle -->
    <circle cx="12" cy="12" r="11" stroke="currentColor" stroke-width="1.5" fill="none"/>
    
    <!-- Reduced and shifted further to the left -->
    <path d="M7 9C7 7.58579 7 6.87868 7.29289 6.58579C7.58579 6.29289 8.17157 6 9 6C9.82843 6 10.4142 6.29289 10.7071 6.58579C11 6.87868 11 7.58579 11 9V15C11 16.4142 11 17.1213 10.7071 17.4142C10.4142 17.7071 9.82843 18 9 18C8.17157 18 7.58579 17.7071 7.29289 17.4142C7 17.1213 7 16.4142 7 15V9Z" stroke="currentColor" stroke-width="1.5"/>
    
    <path d="M13 9C13 7.58579 13 6.87868 13.2929 6.58579C13.5858 6.29289 14.1716 6 15 6C15.8284 6 16.4142 6.29289 16.7071 6.58579C17 6.87868 17 7.58579 17 9V15C17 16.4142 17 17.1213 16.7071 17.4142C16.4142 17.7071 15.8284 18 15 18C14.1716 18 13.5858 17.7071 13.2929 17.4142C13 17.1213 13 16.4142 13 15V9Z" stroke="currentColor" stroke-width="1.5"/>
</svg>


